P3
8 2
255
0 0 0   
255 255 255
128 128 128   
64 64 64
0 0 0   
255 255 255
128 128 128   
64 64 64
0 0 0   
255 255 255
128 128 128   
64 64 64
255 255 255
128 128 128   
64 64 64
0 0 0
