P3
20 14
255
255 255 255 255 255 255 255 255 255 255 255 255 255 255 255 255 255 255 254 254 254 254 254 254 253 253 253 253 253 253 130 130 130 209 209 209 255 255 255 248 248 248 251 251 251 218 218 218 206 206 206 255 255 255 253 253 253 255 255 255 
255 255 255 255 255 255 255 255 255 254 254 254 254 254 254 254 254 254 252 252 252 251 251 251 251 251 251 255 255 255 88 88 88 33 33 33 233 233 233 255 255 255 255 255 255 198 198 198 38 38 38 226 226 226 254 254 254 253 253 253 
255 255 255 255 255 255 254 254 254 255 255 255 254 254 254 252 252 252 255 255 255 255 255 255 255 255 255 248 248 248 69 69 69 0 0 0 84 84 84 170 170 170 189 189 189 144 144 144 0 0 0 98 98 98 255 255 255 252 252 252 
254 254 254 254 254 254 254 254 254 252 252 252 254 254 254 255 255 255 186 186 186 103 103 103 74 74 74 54 54 54 25 25 25 105 105 105 18 18 18 8 8 8 15 15 15 21 21 21 21 21 21 40 40 40 241 241 241 255 255 255 
255 255 255 254 254 254 253 253 253 255 255 255 252 252 252 194 194 194 70 70 70 1 1 1 14 14 14 13 13 13 48 48 48 224 224 224 44 44 44 23 23 23 29 29 29 30 30 30 21 21 21 40 40 40 238 238 238 254 254 254 
254 254 254 255 255 255 255 255 255 174 174 174 65 65 65 17 17 17 25 25 25 37 37 37 39 39 39 38 38 38 56 56 56 105 105 105 37 37 37 32 32 32 32 32 32 28 28 28 25 25 25 32 32 32 229 229 229 255 255 255 
254 254 254 233 233 233 97 97 97 12 12 12 17 17 17 30 30 30 64 64 64 122 122 122 173 173 173 171 171 171 115 115 115 27 27 27 16 16 16 44 44 44 93 93 93 87 87 87 42 42 42 7 7 7 162 162 162 254 254 254 
242 242 242 97 97 97 6 6 6 24 24 24 29 29 29 75 75 75 156 156 156 195 195 195 198 198 198 153 153 153 20 20 20 48 48 48 69 69 69 44 44 44 70 70 70 43 43 43 45 45 45 6 6 6 160 160 160 254 254 254 
238 238 238 75 75 75 18 18 18 54 54 54 106 106 106 117 117 117 120 120 120 103 103 103 110 110 110 63 63 63 53 53 53 184 184 184 161 161 161 114 114 114 88 88 88 112 112 112 100 100 100 0 0 0 118 118 118 255 255 255 
128 128 128 20 20 20 15 15 15 28 28 28 36 36 36 40 40 40 54 54 54 50 50 50 14 14 14 15 15 15 53 53 53 184 184 184 143 143 143 35 35 35 27 27 27 73 73 73 179 179 179 72 72 72 5 5 5 96 96 96 
132 132 132 10 10 10 69 69 69 146 146 146 208 208 208 242 242 242 255 255 255 135 135 135 14 14 14 30 30 30 70 70 70 138 138 138 130 130 130 166 166 166 104 104 104 8 8 8 94 94 94 134 134 134 24 24 24 22 22 22 
126 126 126 171 171 171 255 255 255 255 255 255 255 255 255 255 255 255 251 251 251 184 184 184 70 70 70 0 0 0 37 37 37 30 30 30 21 21 21 22 22 22 140 140 140 102 102 102 65 65 65 51 51 51 41 41 41 191 191 191 
255 255 255 255 255 255 254 254 254 251 251 251 253 253 253 252 252 252 254 254 254 223 223 223 59 59 59 130 130 130 194 194 194 227 227 227 232 232 232 153 153 153 25 25 25 132 132 132 109 109 109 8 8 8 167 167 167 255 255 255 
254 254 254 251 251 251 254 254 254 254 254 254 254 254 254 253 253 253 255 255 255 207 207 207 228 228 228 255 255 255 255 255 255 255 255 255 255 255 255 255 255 255 178 178 178 36 36 36 28 28 28 108 108 108 253 253 253 250 250 250 
